<svg xmlns="http://www.w3.org/2000/svg" width="36" height="32" fill="none" viewBox="0 0 36 32">
    <path fill="#2DA4DD" d="M9.679 3.406c1.88 0 3.449.645 4.667 1.914l.366.381 2.173-2.559-.305-.323C14.823.96 12.502.013 9.68.013c-2.67 0-4.975.951-6.856 2.827C.951 4.713 0 7.062 0 9.831c0 2.79.95 5.152 2.819 7.02 1.856 1.855 4.165 2.794 6.856 2.794 2.823 0 5.144-.943 6.901-2.807l.305-.322-2.173-2.555-.366.381c-1.214 1.27-2.786 1.914-4.667 1.914-1.782 0-3.23-.59-4.424-1.81-1.177-1.23-1.749-2.743-1.749-4.615 0-1.885.572-3.384 1.749-4.582 1.19-1.24 2.634-1.843 4.428-1.843zM23.782 2.165V.03H20.28v19.657h3.502l.05-8.373c-.005-.884-.005-1.06-.009-1.168v-.331c0-2.647.218-3.376 1.37-4.583 1.107-1.223 2.535-1.838 4.252-1.838 1.646 0 2.991.599 4.106 1.834l.12-.113 2.21-2.153.12-.117C34.221.955 32.016 0 29.444 0c-2.96 0-4.696 1.143-5.663 2.165z"/>
    <path fill="#8BC241" d="M28.33 23.204l-.046.063c-1.054 1.424-2.362 2.605-3.889 3.515-1.774 1.06-3.79 1.633-5.988 1.704h-.045c-2.169-.067-4.173-.64-5.946-1.7-1.523-.91-2.832-2.09-3.885-3.51l-.045-.063-2.922 1.91.053.071c1.375 1.897 3.107 3.472 5.153 4.683 2.189 1.294 4.646 2.002 7.304 2.11l.477.013.194-.012c2.654-.11 5.115-.821 7.304-2.111 2.046-1.206 3.778-2.786 5.153-4.683l.053-.071-2.926-1.919z"/>
</svg>
