<svg width="78" height="22" viewBox="0 0 78 22" fill="none" xmlns="http://www.w3.org/2000/svg">
<path d="M5.68803 5.55887C6.79323 5.55887 7.71463 5.92979 8.43047 6.65959L8.64571 6.87877L9.92261 5.40713L9.74365 5.22167C8.711 4.15226 7.34704 3.60792 5.68803 3.60792C4.1185 3.60792 2.76421 4.15467 1.65901 5.23371C0.558646 6.31035 0 7.66156 0 9.25364C0 10.8578 0.558646 12.2162 1.65659 13.2904C2.74728 14.3574 4.10399 14.8969 5.68561 14.8969C7.34462 14.8969 8.70859 14.355 9.74123 13.2832L9.92019 13.0977L8.64329 11.6285L8.42805 11.8477C7.71463 12.5775 6.79081 12.9484 5.68561 12.9484C4.63845 12.9484 3.78718 12.6088 3.08585 11.9079C2.3942 11.1998 2.05804 10.3303 2.05804 9.25364C2.05804 8.16978 2.3942 7.3075 3.08585 6.61865C3.78476 5.9033 4.63362 5.55887 5.68803 5.55887Z" fill="#2DA4DD"/>
<path d="M13.3012 0.0120773H11.2432V14.9092H13.3012V0.0120773Z" fill="#2DA4DD"/>
<path d="M20.3482 3.60792C18.7787 3.60792 17.4244 4.15467 16.3192 5.23371C15.2188 6.30794 14.6626 7.65915 14.6626 9.25123C14.6626 10.8553 15.2212 12.2138 16.3192 13.288C17.4099 14.355 18.7666 14.8945 20.3482 14.8945C21.9298 14.8945 23.2865 14.3526 24.3772 13.288C25.4776 12.2138 26.0338 10.8553 26.0338 9.25123C26.0338 7.66156 25.4752 6.30794 24.3772 5.23371C23.2745 4.15707 21.9177 3.60792 20.3482 3.60792ZM22.9528 11.9055C22.2491 12.6064 21.3978 12.9484 20.3506 12.9484C19.3035 12.9484 18.4522 12.6088 17.7509 11.9079C17.0592 11.1998 16.7231 10.3303 16.7231 9.25364C16.7231 8.16977 17.0592 7.3075 17.7509 6.61865C18.4474 5.90571 19.2986 5.55887 20.3506 5.55887C21.4026 5.55887 22.2539 5.90571 22.9528 6.62106C23.6445 7.30991 23.9782 8.16977 23.9782 9.25364C23.9782 10.3303 23.642 11.1998 22.9528 11.9055Z" fill="#2DA4DD"/>
<path d="M34.4838 10.2968C34.4838 12.0069 33.5962 12.9463 31.9832 12.9463C30.3846 12.9463 29.5043 12.0117 29.5043 10.3161V3.61783H27.4463V10.4582C27.4463 13.1968 29.1609 14.8972 31.9227 14.8972C34.7716 14.8972 36.5418 13.1414 36.5418 10.3185V3.61783H34.4838V10.2968Z" fill="#2DA4DD"/>
<path d="M46.7038 4.8534C46.1379 4.26571 45.1149 3.60817 43.3761 3.60817C41.8646 3.60817 40.5683 4.15732 39.5212 5.24119C38.4788 6.32264 37.9492 7.67145 37.9492 9.25148C37.9492 10.846 38.4788 12.202 39.5212 13.2834C40.5538 14.3529 41.8501 14.8972 43.3761 14.8972C45.1125 14.8972 46.1354 14.2397 46.7038 13.652V14.9165H48.7618V0.0338287H46.7038V4.8534ZM43.3785 12.9487C42.416 12.9487 41.6276 12.6115 40.9674 11.9178C40.3241 11.2024 40.0121 10.3305 40.0121 9.25389C40.0121 8.18688 40.3337 7.29812 40.9649 6.61408C41.6203 5.90596 42.4111 5.55912 43.3785 5.55912C44.3869 5.55912 45.2261 5.91559 45.8767 6.6189C46.5466 7.30534 46.8851 8.1917 46.8851 9.25389C46.8851 10.3281 46.5538 11.1976 45.8743 11.913C45.2213 12.5994 44.3797 12.9487 43.3785 12.9487Z" fill="#2DA4DD"/>
<path d="M68.5612 4.85316C67.9953 4.26546 66.9723 3.60792 65.2335 3.60792C63.722 3.60792 62.4257 4.15707 61.3786 5.24094C60.3363 6.32239 59.8066 7.6712 59.8066 9.25123C59.8066 10.8457 60.3363 12.2017 61.3786 13.2832C62.4112 14.3526 63.7075 14.8969 65.2335 14.8969C66.9723 14.8969 67.9929 14.2394 68.5612 13.6517V14.9066H70.6192V3.61514H68.5612V4.85316ZM65.2359 12.9484C64.2734 12.9484 63.4826 12.6112 62.8248 11.9175C62.1815 11.2022 61.8695 10.3303 61.8695 9.25364C61.8695 8.18663 62.1912 7.29787 62.8224 6.61383C63.4777 5.90571 64.2686 5.55887 65.2359 5.55887C66.2444 5.55887 67.0835 5.91534 67.7365 6.61865C68.4064 7.30268 68.745 8.19145 68.745 9.25364C68.745 10.3279 68.4137 11.1974 67.7341 11.9127C67.0787 12.5992 66.2371 12.9484 65.2359 12.9484Z" fill="#2DA4DD"/>
<path d="M73.265 0.551552C72.9386 0.551552 72.6266 0.681615 72.3896 0.920065C72.1502 1.14647 72.0147 1.45477 72.0099 1.78715C72.0051 2.12917 72.1405 2.45433 72.3896 2.70242C72.6314 2.93123 72.941 3.05648 73.265 3.05648C73.5891 3.05648 73.9011 2.92882 74.1453 2.6976C74.392 2.45192 74.525 2.12917 74.5202 1.78715C74.5153 1.45477 74.3823 1.14647 74.1453 0.922474C73.9035 0.684024 73.5891 0.551552 73.265 0.551552Z" fill="#2DA4DD"/>
<path d="M74.2926 3.62251H72.2346V14.8971H74.2926V3.62251Z" fill="#2DA4DD"/>
<path d="M77.9999 0H75.9419V14.8971H77.9999V0Z" fill="#2DA4DD"/>
<path d="M52.4279 4.84605V3.61768H50.3699V14.9212H52.4279L52.4569 10.1064C52.4545 9.59819 52.4545 9.49703 52.4521 9.43441C52.4521 9.39105 52.4521 9.36697 52.4521 9.24413C52.4521 7.7219 52.5803 7.30281 53.2574 6.60914C53.908 5.90583 54.7471 5.55177 55.7556 5.55177C56.723 5.55177 57.5138 5.8962 58.1692 6.60673L58.2393 6.5417L59.538 5.30369L59.6081 5.23624C58.5633 4.15238 57.2671 3.60322 55.7532 3.60322C54.0168 3.60082 52.9962 4.25595 52.4279 4.84605Z" fill="#2DA4DD"/>
<path d="M55.1004 16.942L55.0738 16.9781C54.4547 17.7971 53.6856 18.4763 52.7884 18.9989C51.7461 19.6083 50.5611 19.9383 49.2697 19.9792H49.2431C47.9686 19.9407 46.7908 19.6107 45.7485 19.0014C44.8537 18.4787 44.0847 17.7995 43.4656 16.983L43.439 16.9468L41.7219 18.0451L41.7534 18.0861C42.5611 19.1772 43.5792 20.0828 44.7812 20.7789C46.0678 21.5231 47.5115 21.9302 49.0738 21.9928L49.3543 22L49.468 21.9928C51.0278 21.9302 52.474 21.5207 53.7606 20.7789C54.9626 20.0852 55.9807 19.1772 56.7884 18.0861L56.8199 18.0451L55.1004 16.942Z" fill="#8BC241"/>
</svg>
